<?xml version="1.0" encoding="utf-8"?>
<!-- Generator: Adobe Illustrator 21.0.2, SVG Export Plug-In . SVG Version: 6.00 Build 0)  -->
<svg version="1.1" id="Livello_1" xmlns="http://www.w3.org/2000/svg" xmlns:xlink="http://www.w3.org/1999/xlink" x="0px" y="0px"
	 width="453.543px" height="340.157px" viewBox="0 0 453.543 340.157" style="enable-background:new 0 0 453.543 340.157;"
	 xml:space="preserve">
<style type="text/css">
	.st0{fill:url(#XMLID_4_);stroke:url(#XMLID_5_);stroke-width:0.5;stroke-miterlimit:10;}
	.st1{fill:url(#XMLID_6_);}
	.st2{fill:url(#XMLID_7_);}
	.st3{fill:url(#XMLID_8_);}
	.st4{fill:url(#XMLID_9_);}
	.st5{fill:url(#XMLID_10_);}
	.st6{opacity:0.19;fill:url(#XMLID_11_);enable-background:new    ;}
</style>
<g id="Background">
	<rect width="453.543" height="340.157"/>
</g>
<g id="Objects">
	<g id="XMLID_18_">
		<g id="XMLID_1_">
			<g id="XMLID_2_">
				<g>
					<g>
						<g id="XMLID_158_">
							
								<linearGradient id="XMLID_4_" gradientUnits="userSpaceOnUse" x1="225.8479" y1="314.4304" x2="225.8479" y2="12.4329" gradientTransform="matrix(1 0 0 -1 0 337.9775)">
								<stop  offset="0" style="stop-color:#FFFFFF"/>
								<stop  offset="0.0871" style="stop-color:#F8F8F8"/>
								<stop  offset="0.2169" style="stop-color:#E3E3E3"/>
								<stop  offset="0.3732" style="stop-color:#C2C2C2"/>
								<stop  offset="0.5503" style="stop-color:#949494"/>
								<stop  offset="0.7448" style="stop-color:#595959"/>
								<stop  offset="0.951" style="stop-color:#121212"/>
								<stop  offset="1" style="stop-color:#000000"/>
							</linearGradient>
							
								<linearGradient id="XMLID_5_" gradientUnits="userSpaceOnUse" x1="85.8177" y1="173.3444" x2="365.878" y2="173.3444" gradientTransform="matrix(1 0 0 -1 0 337.9775)">
								<stop  offset="0" style="stop-color:#FFFFFF"/>
								<stop  offset="0.0392" style="stop-color:#F8F8F8"/>
								<stop  offset="0.0977" style="stop-color:#E3E3E3"/>
								<stop  offset="0.1681" style="stop-color:#C2C2C2"/>
								<stop  offset="0.2479" style="stop-color:#949494"/>
								<stop  offset="0.3355" style="stop-color:#595959"/>
								<stop  offset="0.4284" style="stop-color:#121212"/>
								<stop  offset="0.4504" style="stop-color:#000000"/>
								<stop  offset="0.9109" style="stop-color:#000000"/>
								<stop  offset="1" style="stop-color:#000000"/>
							</linearGradient>
							<path id="XMLID_161_" class="st0" d="M225.848,24.853c-77.199,0-139.78,62.581-139.78,139.78s62.581,139.78,139.78,139.78
								s139.78-62.581,139.78-139.78S303.047,24.853,225.848,24.853z M225.848,292.077c-70.386,0-127.444-57.058-127.444-127.444
								S155.462,37.191,225.848,37.191s127.444,57.058,127.444,127.443S296.233,292.077,225.848,292.077z"/>
							
								<linearGradient id="XMLID_6_" gradientUnits="userSpaceOnUse" x1="225.8479" y1="314.4303" x2="225.8479" y2="12.4331" gradientTransform="matrix(1 0 0 -1 0 337.9775)">
								<stop  offset="0" style="stop-color:#FFFFFF"/>
								<stop  offset="0.0871" style="stop-color:#F8F8F8"/>
								<stop  offset="0.2169" style="stop-color:#E3E3E3"/>
								<stop  offset="0.3732" style="stop-color:#C2C2C2"/>
								<stop  offset="0.5503" style="stop-color:#949494"/>
								<stop  offset="0.7448" style="stop-color:#595959"/>
								<stop  offset="0.951" style="stop-color:#121212"/>
								<stop  offset="1" style="stop-color:#000000"/>
							</linearGradient>
							<circle id="XMLID_160_" class="st1" cx="225.848" cy="164.633" r="127.444"/>
							
								<linearGradient id="XMLID_7_" gradientUnits="userSpaceOnUse" x1="225.8479" y1="301.9783" x2="225.8479" y2="26.6345" gradientTransform="matrix(1 0 0 -1 0 337.9775)">
								<stop  offset="0" style="stop-color:#000000"/>
								<stop  offset="0.049" style="stop-color:#121212"/>
								<stop  offset="0.2552" style="stop-color:#595959"/>
								<stop  offset="0.4497" style="stop-color:#949494"/>
								<stop  offset="0.6268" style="stop-color:#C2C2C2"/>
								<stop  offset="0.7831" style="stop-color:#E3E3E3"/>
								<stop  offset="0.9129" style="stop-color:#F8F8F8"/>
								<stop  offset="1" style="stop-color:#FFFFFF"/>
							</linearGradient>
							<circle id="XMLID_159_" class="st2" cx="225.848" cy="164.633" r="127.444"/>
						</g>
						
							<linearGradient id="XMLID_8_" gradientUnits="userSpaceOnUse" x1="225.8486" y1="293.3615" x2="225.8486" y2="51.4264" gradientTransform="matrix(1 0 0 -1 0 337.9775)">
							<stop  offset="0" style="stop-color:#000000"/>
							<stop  offset="0.928" style="stop-color:#000000"/>
							<stop  offset="1" style="stop-color:#000000"/>
						</linearGradient>
						<path id="XMLID_157_" class="st3" d="M345.794,191.252c18.575-88.438-58.126-165.14-146.564-146.564
							c-46.711,9.81-83.515,46.616-93.327,93.327c-18.575,88.438,58.126,165.138,146.564,146.564
							C299.178,274.767,335.982,237.963,345.794,191.252z"/>
						
							<radialGradient id="XMLID_9_" cx="231.0319" cy="172.4454" r="147.2108" gradientTransform="matrix(1 0 0 -1 0 337.9775)" gradientUnits="userSpaceOnUse">
							<stop  offset="0" style="stop-color:#000000"/>
							<stop  offset="1" style="stop-color:#000000"/>
						</radialGradient>
						<path id="XMLID_156_" class="st4" d="M334.552,137.425c17.632,74.842-39.906,141.313-112.27,139.065
							c-59.003-1.833-106.457-49.287-108.292-108.291c-2.249-72.362,64.222-129.902,139.065-112.27
							C293.326,65.415,325.066,97.157,334.552,137.425z"/>
						<g id="XMLID_152_">
							
								<linearGradient id="XMLID_10_" gradientUnits="userSpaceOnUse" x1="113.963" y1="173.3451" x2="337.7342" y2="173.3451" gradientTransform="matrix(1 0 0 -1 0 337.9775)">
								<stop  offset="0" style="stop-color:#000000"/>
								<stop  offset="0.928" style="stop-color:#000000"/>
								<stop  offset="1" style="stop-color:#000000"/>
							</linearGradient>
							<path id="XMLID_153_" class="st5" d="M225.849,276.518c-61.694,0-111.886-50.191-111.886-111.886
								c0-61.694,50.192-111.885,111.886-111.885c61.692,0,111.885,50.191,111.885,111.885
								C337.733,226.327,287.542,276.518,225.849,276.518z M225.849,53.647c-61.198,0-110.988,49.788-110.988,110.986
								s49.788,110.988,110.988,110.988c61.198,0,110.986-49.789,110.986-110.988S287.046,53.647,225.849,53.647z"/>
						</g>
						
							<radialGradient id="XMLID_11_" cx="235.92" cy="126.6593" r="115.6029" gradientTransform="matrix(1 0 0 -1 0 337.9775)" gradientUnits="userSpaceOnUse">
							<stop  offset="0" style="stop-color:#000000"/>
							<stop  offset="1" style="stop-color:#000000"/>
						</radialGradient>
						<path id="XMLID_151_" class="st6" d="M181.478,219.836c-19.943,0-39.179-2.929-57.281-8.361
							c17.25,37.403,54.506,63.66,98.088,65.015c69.899,2.172,125.959-59.777,113.803-131.453
							C300.765,190.464,244.661,219.836,181.478,219.836z"/>
					</g>
				</g>
			</g>
		</g>
	</g>
</g>
</svg>
